<mxfile host="app.diagrams.net" agent="Mozilla/5.0 (Windows NT 10.0; Win64; x64) AppleWebKit/537.36 (KHTML, like Gecko) Chrome/123.0.0.0 Safari/537.36 OPR/109.0.0.0" version="24.7.4">
  <diagram name="Page-1" id="gf5pgh5LfyA7Gk35XtZ5">
    <mxGraphModel>
      <root>
        <mxCell id="0" />
        <mxCell id="1" parent="0" />
        <mxCell id="2" value="Services" style="whiteSpace=wrap;strokeWidth=2;verticalAlign=top;" vertex="1" parent="1">
          <mxGeometry x="509" width="245" height="356" as="geometry" />
        </mxCell>
        <mxCell id="3" value="Music Service" style="rounded=1;absoluteArcSize=1;arcSize=14;whiteSpace=wrap;strokeWidth=2;" vertex="1" parent="1">
          <mxGeometry x="575" y="35" width="112" height="34" as="geometry" />
        </mxCell>
        <mxCell id="4" value="User Service" style="rounded=1;absoluteArcSize=1;arcSize=14;whiteSpace=wrap;strokeWidth=2;" vertex="1" parent="1">
          <mxGeometry x="579" y="119" width="104" height="34" as="geometry" />
        </mxCell>
        <mxCell id="5" value="Storage Service" style="rounded=1;absoluteArcSize=1;arcSize=14;whiteSpace=wrap;strokeWidth=2;" vertex="1" parent="1">
          <mxGeometry x="568" y="203" width="126" height="34" as="geometry" />
        </mxCell>
        <mxCell id="6" value="Recommendation Service" style="rounded=1;absoluteArcSize=1;arcSize=14;whiteSpace=wrap;strokeWidth=2;" vertex="1" parent="1">
          <mxGeometry x="534" y="287" width="195" height="34" as="geometry" />
        </mxCell>
        <mxCell id="7" value="API Gateway" style="whiteSpace=wrap;strokeWidth=2;verticalAlign=top;" vertex="1" parent="1">
          <mxGeometry x="328" width="131" height="356" as="geometry" />
        </mxCell>
        <mxCell id="8" value="Service 1" style="rounded=1;absoluteArcSize=1;arcSize=14;whiteSpace=wrap;strokeWidth=2;" vertex="1" parent="1">
          <mxGeometry x="353" y="35" width="80" height="34" as="geometry" />
        </mxCell>
        <mxCell id="9" value="Service 2" style="rounded=1;absoluteArcSize=1;arcSize=14;whiteSpace=wrap;strokeWidth=2;" vertex="1" parent="1">
          <mxGeometry x="353" y="119" width="80" height="34" as="geometry" />
        </mxCell>
        <mxCell id="10" value="Service 3" style="rounded=1;absoluteArcSize=1;arcSize=14;whiteSpace=wrap;strokeWidth=2;" vertex="1" parent="1">
          <mxGeometry x="353" y="203" width="80" height="34" as="geometry" />
        </mxCell>
        <mxCell id="11" value="Service 4" style="rounded=1;absoluteArcSize=1;arcSize=14;whiteSpace=wrap;strokeWidth=2;" vertex="1" parent="1">
          <mxGeometry x="353" y="287" width="81" height="34" as="geometry" />
        </mxCell>
        <mxCell id="12" value="Clients" style="whiteSpace=wrap;strokeWidth=2;verticalAlign=top;" vertex="1" parent="1">
          <mxGeometry width="278" height="366" as="geometry" />
        </mxCell>
        <mxCell id="13" value="API Gateway" style="rounded=1;absoluteArcSize=1;arcSize=14;whiteSpace=wrap;strokeWidth=2;" vertex="1" parent="1">
          <mxGeometry x="146" y="161" width="107" height="34" as="geometry" />
        </mxCell>
        <mxCell id="14" value="Client 1" style="rounded=1;absoluteArcSize=1;arcSize=14;whiteSpace=wrap;strokeWidth=2;" vertex="1" parent="1">
          <mxGeometry x="25" y="35" width="71" height="34" as="geometry" />
        </mxCell>
        <mxCell id="15" value="Client 2" style="rounded=1;absoluteArcSize=1;arcSize=14;whiteSpace=wrap;strokeWidth=2;" vertex="1" parent="1">
          <mxGeometry x="25" y="161" width="71" height="34" as="geometry" />
        </mxCell>
        <mxCell id="16" value="Client 3" style="rounded=1;absoluteArcSize=1;arcSize=14;whiteSpace=wrap;strokeWidth=2;" vertex="1" parent="1">
          <mxGeometry x="25" y="297" width="71" height="34" as="geometry" />
        </mxCell>
        <mxCell id="17" value="" style="curved=1;startArrow=none;endArrow=block;exitX=1;exitY=0.5;entryX=0.4;entryY=0;" edge="1" parent="1" source="14" target="13">
          <mxGeometry relative="1" as="geometry">
            <Array as="points">
              <mxPoint x="121" y="52" />
            </Array>
          </mxGeometry>
        </mxCell>
        <mxCell id="18" value="" style="curved=1;startArrow=none;endArrow=block;exitX=1;exitY=0.5;entryX=0;entryY=0.5;" edge="1" parent="1" source="15" target="13">
          <mxGeometry relative="1" as="geometry">
            <Array as="points" />
          </mxGeometry>
        </mxCell>
        <mxCell id="19" value="" style="curved=1;startArrow=none;endArrow=block;exitX=1;exitY=0.5;entryX=0.41;entryY=1;" edge="1" parent="1" source="16" target="13">
          <mxGeometry relative="1" as="geometry">
            <Array as="points">
              <mxPoint x="121" y="314" />
            </Array>
          </mxGeometry>
        </mxCell>
        <mxCell id="20" value="" style="curved=1;startArrow=none;endArrow=block;exitX=0.6;exitY=0;entryX=0.01;entryY=0.5;" edge="1" parent="1" source="13" target="8">
          <mxGeometry relative="1" as="geometry">
            <Array as="points">
              <mxPoint x="278" y="52" />
            </Array>
          </mxGeometry>
        </mxCell>
        <mxCell id="21" value="" style="curved=1;startArrow=none;endArrow=block;exitX=0.8;exitY=0;entryX=0.01;entryY=0.5;" edge="1" parent="1" source="13" target="9">
          <mxGeometry relative="1" as="geometry">
            <Array as="points">
              <mxPoint x="278" y="136" />
            </Array>
          </mxGeometry>
        </mxCell>
        <mxCell id="22" value="" style="curved=1;startArrow=none;endArrow=block;exitX=0.8;exitY=1;entryX=0.01;entryY=0.5;" edge="1" parent="1" source="13" target="10">
          <mxGeometry relative="1" as="geometry">
            <Array as="points">
              <mxPoint x="278" y="220" />
            </Array>
          </mxGeometry>
        </mxCell>
        <mxCell id="23" value="" style="curved=1;startArrow=none;endArrow=block;exitX=0.6;exitY=1;entryX=0;entryY=0.5;" edge="1" parent="1" source="13" target="11">
          <mxGeometry relative="1" as="geometry">
            <Array as="points">
              <mxPoint x="278" y="304" />
            </Array>
          </mxGeometry>
        </mxCell>
        <mxCell id="24" value="" style="curved=1;startArrow=none;endArrow=block;exitX=1;exitY=0.5;entryX=0;entryY=0.5;" edge="1" parent="1" source="8" target="3">
          <mxGeometry relative="1" as="geometry">
            <Array as="points" />
          </mxGeometry>
        </mxCell>
        <mxCell id="25" value="" style="curved=1;startArrow=none;endArrow=block;exitX=1;exitY=0.5;entryX=0;entryY=0.5;" edge="1" parent="1" source="9" target="4">
          <mxGeometry relative="1" as="geometry">
            <Array as="points" />
          </mxGeometry>
        </mxCell>
        <mxCell id="26" value="" style="curved=1;startArrow=none;endArrow=block;exitX=1;exitY=0.5;entryX=0;entryY=0.5;" edge="1" parent="1" source="10" target="5">
          <mxGeometry relative="1" as="geometry">
            <Array as="points" />
          </mxGeometry>
        </mxCell>
        <mxCell id="27" value="" style="curved=1;startArrow=none;endArrow=block;exitX=1;exitY=0.5;entryX=0;entryY=0.5;" edge="1" parent="1" source="11" target="6">
          <mxGeometry relative="1" as="geometry">
            <Array as="points" />
          </mxGeometry>
        </mxCell>
      </root>
    </mxGraphModel>
  </diagram>
</mxfile>
